<?xml version="1.0" encoding="UTF-8" standalone="no"?>
<!-- Svg Vector Icons : http://www.onlinewebfonts.com/icon -->

<svg
   xmlns:dc="http://purl.org/dc/elements/1.1/"
   xmlns:cc="http://creativecommons.org/ns#"
   xmlns:rdf="http://www.w3.org/1999/02/22-rdf-syntax-ns#"
   xmlns="http://www.w3.org/2000/svg"
   xmlns:sodipodi="http://sodipodi.sourceforge.net/DTD/sodipodi-0.dtd"
   xmlns:inkscape="http://www.inkscape.org/namespaces/inkscape"
   version="1.1"
   x="0px"
   y="0px"
   viewBox="0 0 1000 1000"
   enable-background="new 0 0 1000 1000"
   xml:space="preserve"
   id="svg10"
   sodipodi:docname="germ.svg"
   inkscape:version="0.92.2 (5c3e80d, 2017-08-06)"><defs
     id="defs14" /><sodipodi:namedview
     pagecolor="#ffffff"
     bordercolor="#666666"
     borderopacity="1"
     objecttolerance="10"
     gridtolerance="10"
     guidetolerance="10"
     inkscape:pageopacity="0"
     inkscape:pageshadow="2"
     inkscape:window-width="841"
     inkscape:window-height="480"
     id="namedview12"
     showgrid="false"
     inkscape:zoom="0.287"
     inkscape:cx="500"
     inkscape:cy="500"
     inkscape:window-x="0"
     inkscape:window-y="570"
     inkscape:window-maximized="0"
     inkscape:current-layer="svg10" /><metadata
     id="metadata2"> Svg Vector Icons : http://www.onlinewebfonts.com/icon <rdf:RDF><cc:Work
     rdf:about=""><dc:format>image/svg+xml</dc:format><dc:type
       rdf:resource="http://purl.org/dc/dcmitype/StillImage" /><dc:title></dc:title></cc:Work></rdf:RDF></metadata><g
     id="g8"
     style="fill:#999999;fill-opacity:1"><g
       transform="translate(0.000000,512.000000) scale(0.100000,-0.100000)"
       id="g6"
       style="fill:#999999;fill-opacity:1"><path
         d="M6608.4,4968.8c-128.3-65.1-218.2-191.4-237.4-327.3c-9.6-74.7-1.9-124.4,36.4-235.4c30.6-91.9,44-162.7,36.4-199.1c-13.4-63.2-279.5-792.5-313.9-855.7c-11.5-21-49.8-49.8-84.2-65.1c-53.6-21.1-76.6-21.1-164.6,1.9c-281.4,78.5-369.5,90-587.7,78.5c-128.2-7.7-229.7-3.8-250.8,7.6c-44,23-63.2,70.8-145.5,371.4c-82.3,302.5-84.2,377.1-13.4,511.1c130.2,254.6,7.7,557.1-256.5,629.8c-176.1,49.8-371.4-21.1-478.6-174.2c-49.8-72.7-55.5-95.7-55.5-237.4c0-139.7,5.7-164.6,53.6-237.4c30.6-45.9,97.6-109.1,151.2-141.7c55.5-34.5,109.1-86.2,130.2-128.3c59.3-114.9,214.4-729.4,202.9-800.2c-5.7-38.3-59.3-130.2-134-225.9c-68.9-90-172.3-256.5-229.7-371.4c-109.1-210.6-132.1-237.4-185.7-208.7c-32.5,17.2-248.9,273.7-281.4,336.9c-13.4,23-23,105.3-23,181.9c0,162.7-38.3,262.3-135.9,354.2c-162.7,155-411.6,158.9-576.2,9.6c-157-141.7-191.4-333.1-95.7-522.6c65.1-130.2,164.6-201,319.7-227.8c63.2-11.5,134-24.9,155.1-28.7c45.9-9.6,384.8-402,438.4-507.3c51.7-99.6,28.7-187.6-93.8-371.4c-134-201-279.5-336.9-361.8-336.9c-36.4,0-157,51.7-315.9,137.8c-271.8,145.5-317.8,189.5-367.6,348.4c-57.4,179.9-291,306.3-488.2,262.3c-118.7-26.8-241.2-124.4-298.6-237.4c-122.5-237.4,28.7-547.5,296.7-608.8c91.9-19.1,122.5-19.1,231.6,11.5c68.9,17.2,141.7,28.7,162.7,23c21.1-5.7,137.8-63.2,258.4-130.2c158.9-84.2,224-130.2,231.6-160.8c7.7-32.5-19.1-90-103.4-212.5c-63.2-93.8-137.8-218.2-166.5-275.7c-72.7-147.4-134-224-191.4-237.4c-26.8-7.7-187.6,9.6-358,36.4c-507.3,80.4-486.2,74.7-620.2,212.5c-132.1,137.8-212.5,179.9-352.2,179.9c-403.9,0-585.8-507.3-273.8-763.8c158.9-132.1,367.5-130.2,549.4,0c95.7,68.9,149.3,70.8,541.8,5.7c306.3-49.8,398.2-82.3,419.2-147.4c5.7-21,5.7-116.8,0-212.5c-7.7-97.6-3.8-237.4,7.7-317.8c45.9-315.9,45.9-375.2,5.7-415.4c-44-44-413.5-208.6-528.3-235.5c-59.4-13.4-111-9.6-202.9,11.5c-268,67-455.6,0-560.9-201c-179.9-342.7,130.2-717.9,507.3-612.6c99.5,26.8,197.2,118.7,262.3,245c28.7,59.3,74.7,126.3,99.6,151.2c67,61.3,520.7,252.7,601.1,252.7c55.5,0,80.4-15.3,147.4-90c44-49.8,166.6-178,271.8-287.1c160.8-168.5,189.5-206.7,189.5-260.3c0-70.8-308.2-671.9-396.3-773.4c-32.5-36.4-93.8-74.6-151.2-93.8c-269.9-88.1-390.5-371.4-266.1-616.4c47.9-91.9,105.3-145.5,212.5-193.4c183.8-84.2,403.9-21.1,522.6,147.4c57.4,84.2,61.3,99.6,59.3,243.1c-1.9,84.2-5.7,197.2-9.6,248.9c-7.7,90,3.8,114.9,153.1,396.3c90,166.6,187.6,325.4,216.3,354.2c72.7,70.8,178,70.8,402,1.9c91.9-28.7,243.1-61.3,335-72.7c212.5-26.8,250.8-42.1,283.3-120.6c32.5-80.4,151.2-1093.1,135.9-1169.7c-5.7-30.6-32.5-82.3-57.4-114.9c-82.3-111-111-185.7-111-300.5c0-319.7,312-528.4,597.3-398.2c204.8,91.9,298.6,283.3,248.9,499.7c-21.1,82.3-47.9,124.4-147.4,227.8c-141.7,147.4-134,114.9-206.7,784.9c-68.9,606.8-63.2,622.2,202.9,735.1c88,38.3,222,103.4,296.7,145.5c141.7,76.6,195.2,88,256.5,55.5c67-36.4,484.3-505.4,516.9-583.9c19.1-44,34.4-124.4,34.4-185.7c1.9-336.9,358-539.8,649-367.6c241.2,139.8,279.5,474.8,80.4,675.8c-82.3,82.3-233.6,141.7-338.9,135.9c-28.7-1.9-61.3-3.8-74.7-1.9c-30.6,1.9-478.6,492-516.9,562.8c-44,86.1-19.2,157,107.2,308.2c61.3,74.6,157,204.8,210.6,289.1c141.7,214.4,147.4,220.1,248.9,220.1c107.2,0,572.4-153.1,675.7-222.1c40.2-24.9,95.7-82.3,122.5-128.3c114.9-181.9,220.1-248.9,402-250.8c363.7,0,560.9,425,329.2,706.4c-132.1,158.9-352.2,199.1-553.2,99.5c-59.4-28.7-114.9-51.7-126.4-51.7c-42.1,0-555.1,178-610.6,212.5c-63.2,38.3-103.4,107.2-103.4,176.1c0,23,24.9,143.6,57.4,266.1c30.6,122.5,70.8,319.7,88,440.3c17.2,118.7,38.3,235.5,47.9,258.4c34.5,93.8,72.8,99.6,553.2,105.3c400.1,5.7,457.5,1.9,511.1-28.7c34.5-17.2,70.8-51.7,82.3-72.7c32.5-57.4,204.8-132.1,306.3-132.1c113,0,268,74.7,329.2,155.1c82.3,109.1,99.6,157,97.6,275.7c0,128.3-44,235.5-134,319.7c-158.9,153.2-453.7,145.5-599.2-13.4c-93.8-101.5-114.9-105.3-612.6-105.3c-549.4,0-526.4-9.6-545.6,224c-11.5,160.8-51.7,453.7-90,660.4c-40.2,222.1-44,218.2,482.4,511.1c335,185.7,371.4,195.3,549.4,155c172.3-40.2,365.6,45.9,459.4,204.8c44,76.6,53.6,113,53.6,216.3c-1.9,241.2-151.2,405.8-388.6,432.7c-197.1,22.9-369.4-99.6-453.7-317.8c-26.8-70.8-68.9-145.5-91.9-166.6c-23-21.1-183.8-118.7-358-214.4c-409.7-227.8-436.5-227.8-585.8,28.7c-40.2,68.9-116.8,178-172.3,245c-132.1,158.9-166.6,231.6-153.2,306.3c19.2,97.6,352.2,974.4,390.5,1026.1c19.1,26.8,74.7,68.9,124.4,95.7c214.4,118.7,304.4,291,260.4,497.7c-28.7,130.2-109.1,233.5-229.7,294.8C6855.3,5037.7,6744.3,5035.8,6608.4,4968.8z M5233.9,1888.6c199.1-189.5,28.7-509.2-243.1-457.5c-153.1,28.7-254.6,214.4-193.3,356.1C4875.9,1970.9,5096.1,2020.7,5233.9,1888.6z M5978.6,885.5c174.2-88,250.8-315.9,166.5-488.1c-28.7-59.3-113-143.6-176.1-176.1c-82.3-44-233.6-38.3-331.2,11.5c-151.2,76.6-231.6,281.4-178,446c26.8,78.5,122.5,183.8,202.9,218.2C5748.8,935.3,5892.4,929.5,5978.6,885.5z M4659.6-154c396.2-204.8,432.6-756.2,67-1006.9c-296.7-204.8-708.3-101.5-863.4,218.2c-145.5,296.7-30.6,647,260.3,792.5c103.4,51.7,139.7,59.3,268,59.3C4521.8-90.8,4554.3-98.4,4659.6-154z"
         id="path4"
         style="fill:#999999;fill-opacity:1" /></g></g></svg>
